<svg width="31" height="15" viewBox="0 0 31 15" fill="none" xmlns="http://www.w3.org/2000/svg">
<g id="Discover">
<path id="Stripe" d="M11.8915 15L30.8915 9.25V12C30.8915 13.6569 29.5483 15 27.8915 15H11.8915Z" fill="#FD6020"/>
<path id="DISC-VER" fill-rule="evenodd" clip-rule="evenodd" d="M26.8879 0.987743C27.9191 0.987743 28.4863 1.46475 28.4863 2.36577C28.5378 3.05478 28.0738 3.63779 27.4551 3.74379L28.8472 5.70483H27.7644L26.5786 3.79679H26.4755V5.70483H25.599V0.987743H26.8879ZM26.4755 3.16076H26.7333C27.3004 3.16076 27.5582 2.89575 27.5582 2.41874C27.5582 1.99474 27.3004 1.72973 26.7333 1.72973H26.4755V3.16076ZM22.5571 5.70483H25.0319V4.90981H23.4336V3.63779H24.9804V2.84278H23.4336V1.78276H25.0319V0.987743H22.5571V5.70483ZM19.9791 4.1678L18.7933 0.987743H17.8652L19.7729 5.81082H20.2369L22.1446 0.987743H21.2165L19.9791 4.1678ZM9.51271 3.37269C9.51271 4.69772 10.5439 5.81074 11.8328 5.81074C12.2453 5.81074 12.6062 5.70473 12.9671 5.54573V4.48571C12.7093 4.80372 12.3484 5.01572 11.936 5.01572C11.111 5.01572 10.4408 4.37971 10.4408 3.5317V3.42569C10.3892 2.57768 11.0595 1.83567 11.8844 1.78267C12.2969 1.78267 12.7093 1.99467 12.9671 2.31268V1.25266C12.6578 1.04065 12.2453 0.987652 11.8844 0.987652C10.5439 0.88165 9.51271 1.99467 9.51271 3.37269ZM7.91444 2.78974C7.39886 2.57773 7.24418 2.47173 7.24418 2.20673C7.29574 1.88872 7.55353 1.62372 7.86288 1.67672C8.12068 1.67672 8.37847 1.83572 8.5847 2.04773L9.04873 1.41171C8.68782 1.09371 8.22379 0.881705 7.75977 0.881705C7.03795 0.828704 6.41925 1.41171 6.36769 2.15373V2.20673C6.36769 2.84274 6.62548 3.21375 7.45042 3.47875C7.65665 3.53175 7.86288 3.63775 8.06912 3.74376C8.22379 3.84976 8.32691 4.00876 8.32691 4.22076C8.32691 4.59177 8.01756 4.90978 7.70821 4.90978H7.65665C7.24418 4.90978 6.88327 4.64477 6.7286 4.27376L6.16146 4.85677C6.47081 5.43979 7.08951 5.75779 7.70821 5.75779C8.53314 5.81079 9.2034 5.17478 9.25496 4.32677V4.16776C9.2034 3.53175 8.94561 3.21375 7.91444 2.78974ZM4.92405 5.70483H5.80054V0.987743H4.92405V5.70483ZM0.850952 0.987009H2.13991H2.39771C3.63511 1.04001 4.61472 2.10003 4.56316 3.37205C4.56316 4.06106 4.25381 4.69707 3.73822 5.17408C3.2742 5.54509 2.70706 5.75709 2.13991 5.70409H0.850952V0.987009ZM1.98526 4.90987C2.39773 4.96287 2.86175 4.80386 3.1711 4.53886C3.48045 4.22085 3.63513 3.79685 3.63513 3.31984C3.63513 2.89583 3.48045 2.47182 3.1711 2.15382C2.86175 1.88881 2.39773 1.72981 1.98526 1.78281H1.72747V4.90987H1.98526Z" fill="black"/>
<path id="O" fill-rule="evenodd" clip-rule="evenodd" d="M15.5968 0.878357C14.3078 0.878357 13.2251 1.93838 13.2251 3.3164C13.2251 4.64142 14.2563 5.75444 15.5968 5.80744C16.9373 5.86044 17.9685 4.74742 18.02 3.3694C17.9685 1.99138 16.9373 0.878357 15.5968 0.878357V0.878357Z" fill="#FD6020"/>
</g>
</svg>
