<svg width="22" height="15" viewBox="0 0 22 15" fill="none" xmlns="http://www.w3.org/2000/svg">
<g id="Maestro">
<path id="Left" d="M13.3753 7.54763C13.3753 11.2011 10.4476 14.1628 6.8361 14.1628C3.22459 14.1628 0.296875 11.2011 0.296875 7.54763C0.296875 3.89419 3.22459 0.932495 6.8361 0.932495C10.4476 0.932495 13.3753 3.89419 13.3753 7.54763Z" fill="#ED0006"/>
<path id="Right" d="M21.8587 7.54763C21.8587 11.2011 18.931 14.1628 15.3195 14.1628C11.708 14.1628 8.78027 11.2011 8.78027 7.54763C8.78027 3.89419 11.708 0.932495 15.3195 0.932495C18.931 0.932495 21.8587 3.89419 21.8587 7.54763Z" fill="#2F80ED"/>
<path id="Middle" fill-rule="evenodd" clip-rule="evenodd" d="M11.0778 2.51276C12.4838 3.72609 13.3753 5.53152 13.3753 7.54759C13.3753 9.56366 12.4838 11.3691 11.0778 12.5824C9.6718 11.3691 8.78027 9.56366 8.78027 7.54759C8.78027 5.53152 9.6718 3.72609 11.0778 2.51276Z" fill="#6C6BBD"/>
</g>
</svg>
