<svg width="23" height="15" viewBox="0 0 23 15" fill="none" xmlns="http://www.w3.org/2000/svg">
<g id="Mastercard">
<path id="Left" fill-rule="evenodd" clip-rule="evenodd" d="M11.8114 12.602C10.6433 13.5866 9.12815 14.181 7.47251 14.181C3.77824 14.181 0.783447 11.2218 0.783447 7.5715C0.783447 3.92119 3.77824 0.962036 7.47251 0.962036C9.12815 0.962036 10.6433 1.55639 11.8114 2.54094C12.9794 1.55639 14.4945 0.962036 16.1502 0.962036C19.8445 0.962036 22.8393 3.92119 22.8393 7.5715C22.8393 11.2218 19.8445 14.181 16.1502 14.181C14.4945 14.181 12.9794 13.5866 11.8114 12.602Z" fill="#ED0006"/>
<path id="Right" fill-rule="evenodd" clip-rule="evenodd" d="M11.8113 12.6021C13.2495 11.3898 14.1615 9.58588 14.1615 7.5715C14.1615 5.55711 13.2495 3.7532 11.8113 2.5409C12.9793 1.55637 14.4945 0.962036 16.1501 0.962036C19.8443 0.962036 22.8391 3.92119 22.8391 7.5715C22.8391 11.2218 19.8443 14.181 16.1501 14.181C14.4945 14.181 12.9793 13.5866 11.8113 12.6021Z" fill="#F9A000"/>
<path id="Middle" fill-rule="evenodd" clip-rule="evenodd" d="M11.8114 12.602C13.2496 11.3897 14.1616 9.58584 14.1616 7.57149C14.1616 5.55713 13.2496 3.75325 11.8114 2.54095C10.3731 3.75325 9.46118 5.55713 9.46118 7.57149C9.46118 9.58584 10.3731 11.3897 11.8114 12.602Z" fill="#FD6020"/>
</g>
</svg>
