<svg width="12" height="14" viewBox="0 0 12 14" fill="none" xmlns="http://www.w3.org/2000/svg">
<g id="PayPal">
<path id="Fill 7" fill-rule="evenodd" clip-rule="evenodd" d="M4.01918 13.4484L4.2399 11.9993L3.74821 11.9874H1.40027L3.032 1.29379C3.03709 1.26141 3.05352 1.23135 3.07752 1.20996C3.10164 1.18858 3.13237 1.17685 3.16453 1.17685H7.12351C8.43793 1.17685 9.34495 1.45949 9.81844 2.01743C10.0405 2.27917 10.1819 2.55276 10.2503 2.85373C10.3221 3.1696 10.3233 3.54694 10.2533 4.00725L10.2482 4.04073V4.33571L10.4702 4.46572C10.6571 4.56824 10.8057 4.68555 10.9197 4.81984C11.1096 5.0437 11.2324 5.32817 11.2843 5.66531C11.338 6.01209 11.3202 6.42487 11.2324 6.89214C11.1311 7.42955 10.9673 7.89768 10.7461 8.28064C10.5428 8.63354 10.2837 8.92632 9.97591 9.15311C9.68213 9.36866 9.33313 9.53228 8.93849 9.637C8.55604 9.73989 8.12003 9.79182 7.64181 9.79182H7.33372C7.11346 9.79182 6.89948 9.87381 6.73148 10.0208C6.56301 10.1709 6.45164 10.3759 6.41748 10.6001L6.39419 10.7306L6.00416 13.2849L5.98655 13.3786C5.98182 13.4083 5.97378 13.4231 5.96196 13.4331C5.95144 13.4423 5.9363 13.4484 5.92152 13.4484H4.01918Z" fill="#28356A"/>
<path id="Fill 8" fill-rule="evenodd" clip-rule="evenodd" d="M10.6806 4.07471C10.6689 4.15279 10.6553 4.23258 10.6402 4.31458C10.1181 7.08522 8.33185 8.04237 6.05059 8.04237H4.88904C4.61003 8.04237 4.37488 8.25169 4.33149 8.53615L3.56835 13.5394C3.54009 13.7262 3.67936 13.8945 3.86166 13.8945H5.92184C6.16574 13.8945 6.37299 13.7113 6.41141 13.4627L6.43163 13.3545L6.81952 10.8103L6.84447 10.6708C6.88242 10.4213 7.09014 10.238 7.33403 10.238H7.64213C9.63811 10.238 11.2007 9.40044 11.6574 6.97658C11.8481 5.96408 11.7494 5.11862 11.2445 4.52402C11.0918 4.34476 10.9023 4.19592 10.6806 4.07471Z" fill="#2F80ED"/>
<path id="Fill 9" fill-rule="evenodd" clip-rule="evenodd" d="M10.1342 3.84968C10.0544 3.82561 9.97213 3.80386 9.88772 3.78419C9.80283 3.765 9.71594 3.74802 9.62644 3.73311C9.31327 3.68081 8.97006 3.65601 8.6025 3.65601H5.49947C5.42298 3.65601 5.35039 3.67385 5.28548 3.70611C5.14231 3.77722 5.03603 3.91726 5.01026 4.0887L4.35009 8.41023L4.33118 8.53621C4.37457 8.25174 4.60971 8.04243 4.88872 8.04243H6.05028C8.33153 8.04243 10.1178 7.08479 10.6399 4.31463C10.6555 4.23264 10.6686 4.15285 10.6803 4.07477C10.5482 4.00231 10.4052 3.94035 10.2511 3.88756C10.2131 3.87449 10.1738 3.8619 10.1342 3.84968Z" fill="#28356A"/>
<path id="Fill 11" fill-rule="evenodd" clip-rule="evenodd" d="M5.01042 4.08874C5.03619 3.91731 5.14247 3.77727 5.28564 3.70664C5.35102 3.67426 5.42314 3.65642 5.49963 3.65642H8.60266C8.97022 3.65642 9.31343 3.68135 9.62661 3.73365C9.7161 3.74843 9.80299 3.76554 9.88788 3.78472C9.97229 3.80428 10.0546 3.82615 10.1344 3.8501C10.174 3.86232 10.2132 3.87503 10.2517 3.88761C10.4057 3.9404 10.5489 4.00284 10.6809 4.07481C10.8363 3.05095 10.6796 2.35383 10.1441 1.72257C9.55354 1.02752 8.48787 0.730103 7.12415 0.730103H3.16505C2.88652 0.730103 2.64888 0.939422 2.60585 1.22438L0.956857 12.028C0.924345 12.2417 1.08383 12.4345 1.29238 12.4345H3.73655L5.01042 4.08874Z" fill="#28356A"/>
</g>
</svg>
