<svg width="24" height="9" viewBox="0 0 24 9" fill="none" xmlns="http://www.w3.org/2000/svg">
<path id="visa-logo" fill-rule="evenodd" clip-rule="evenodd" d="M6.00998 8.6439H3.97807L2.45439 2.66C2.38207 2.38474 2.22851 2.14139 2.00264 2.0267C1.43893 1.73847 0.817769 1.50909 0.140137 1.3934V1.16302H3.41338C3.86513 1.16302 4.20395 1.50909 4.26042 1.91101L5.05099 6.2274L7.08191 1.16302H9.05734L6.00998 8.6439ZM10.1868 8.6439H8.2678L9.84795 1.16302H11.7669L10.1868 8.6439ZM14.2496 3.2355C14.3061 2.83258 14.6449 2.6022 15.0402 2.6022C15.6613 2.54436 16.338 2.66005 16.9027 2.94728L17.2415 1.33661C16.6768 1.10623 16.0556 0.99054 15.4919 0.99054C13.6294 0.99054 12.2741 2.02675 12.2741 3.46488C12.2741 4.55894 13.2341 5.13339 13.9118 5.47946C14.6449 5.82453 14.9272 6.05491 14.8707 6.39999C14.8707 6.91759 14.3061 7.14797 13.7423 7.14797C13.0647 7.14797 12.3871 6.97544 11.7669 6.68721L11.4281 8.29888C12.1057 8.5861 12.8388 8.70179 13.5165 8.70179C15.6048 8.75864 16.9027 7.72343 16.9027 6.16961C16.9027 4.21287 14.2496 4.09818 14.2496 3.2355ZM23.6185 8.6439L22.0948 1.16302H20.4581C20.1193 1.16302 19.7805 1.3934 19.6676 1.73847L16.8461 8.6439H18.8215L19.2158 7.55084H21.643L21.8689 8.6439H23.6185ZM20.7406 3.17758L21.3043 5.99699H19.7241L20.7406 3.17758Z" fill="#28356A"/>
</svg>
